<?xml version="1.0" encoding="UTF-8"?>
<!DOCTYPE svg PUBLIC "-//W3C//DTD SVG 1.1//EN" "http://www.w3.org/Graphics/SVG/1.1/DTD/svg11.dtd">
<svg xmlns="http://www.w3.org/2000/svg" version="1.1" width="1000px" height="559px" style="shape-rendering:geometricPrecision; text-rendering:geometricPrecision; image-rendering:optimizeQuality; fill-rule:evenodd; clip-rule:evenodd" xmlns:xlink="http://www.w3.org/1999/xlink">
<g><path style="opacity:0.965" fill="#000000" d="M 510.5,21.5 C 585.747,24.1015 637.747,60.1015 666.5,129.5C 655.686,133.884 644.686,137.884 633.5,141.5C 628.727,133.378 624.227,125.044 620,116.5C 591.441,73.6416 551.274,54.4749 499.5,59C 465.265,65.0251 437.765,81.8584 417,109.5C 411.374,118.584 405.874,127.75 400.5,137C 398.5,137.5 396.5,138 394.5,138.5C 349.934,131.942 318.101,148.942 299,189.5C 286.208,231.124 297.375,264.624 332.5,290C 364.076,307.423 395.076,306.423 425.5,287C 486.167,246 546.833,205 607.5,164C 647.266,142.988 684.6,146.655 719.5,175C 740.329,196.14 750.163,221.64 749,251.5C 743.984,292.371 722.151,319.871 683.5,334C 674.022,336.711 664.355,337.878 654.5,337.5C 654.333,326.495 654.5,315.495 655,304.5C 677.633,301.85 694.966,290.85 707,271.5C 720.12,239.538 712.62,213.705 684.5,194C 663.819,183.51 643.485,184.177 623.5,196C 564.44,236.724 505.107,277.058 445.5,317C 403.088,342.443 359.755,344.11 315.5,322C 262.902,285.208 246.402,236.042 266,174.5C 288.211,126.286 326.044,101.453 379.5,100C 410.04,51.9657 453.707,25.7991 510.5,21.5 Z"/></g>
<g><path style="opacity:0.942" fill="#000000" d="M 132.5,360.5 C 158.665,358.219 180.998,366.219 199.5,384.5C 195.149,389.685 190.316,394.351 185,398.5C 160.239,376.488 134.406,374.988 107.5,394C 86.309,415.024 82.4756,438.858 96,465.5C 112.768,489.424 135.268,497.257 163.5,489C 167.947,487.61 171.947,485.444 175.5,482.5C 176.499,467.181 176.833,451.848 176.5,436.5C 183.167,436.5 189.833,436.5 196.5,436.5C 196.667,454.836 196.5,473.17 196,491.5C 174.605,511.057 149.772,517.224 121.5,510C 80.4599,494.099 62.9599,464.265 69,420.5C 74.9901,395.171 89.8234,377.004 113.5,366C 119.828,363.673 126.162,361.84 132.5,360.5 Z"/></g>
<g><path style="opacity:0.938" fill="#000000" d="M 376.5,360.5 C 397.91,358.863 411.91,368.197 418.5,388.5C 412.618,391.353 406.618,394.02 400.5,396.5C 398.551,392.1 396.217,387.933 393.5,384C 380.437,377.531 372.104,381.365 368.5,395.5C 369.205,401.716 372.205,406.549 377.5,410C 387.748,414.457 397.748,419.457 407.5,425C 428.613,440.006 435.113,459.839 427,484.5C 416.343,506.414 398.843,515.581 374.5,512C 351.462,506.103 339.129,491.269 337.5,467.5C 343.677,466.08 349.677,464.08 355.5,461.5C 357.208,466.362 358.708,471.362 360,476.5C 365.944,488.89 375.777,494.057 389.5,492C 404.792,487.036 411.626,476.536 410,460.5C 407.48,451.309 401.98,444.475 393.5,440C 383.167,435.563 373.167,430.563 363.5,425C 348.133,411.837 344.633,396.004 353,377.5C 358.732,368.736 366.566,363.069 376.5,360.5 Z"/></g>
<g><path style="opacity:0.907" fill="#000000" d="M 809.5,361.5 C 816.5,361.5 823.5,361.5 830.5,361.5C 830.5,411.5 830.5,461.5 830.5,511.5C 823.5,511.5 816.5,511.5 809.5,511.5C 809.5,461.5 809.5,411.5 809.5,361.5 Z"/></g>
<g><path style="opacity:0.944" fill="#000000" d="M 261.5,407.5 C 291.514,404.41 312.014,416.743 323,444.5C 329.502,475.664 318.335,497.83 289.5,511C 256.728,518.698 233.894,507.198 221,476.5C 213.99,441.158 227.49,418.158 261.5,407.5 Z M 263.5,428.5 C 287.127,426.465 300.794,437.132 304.5,460.5C 301.836,479.831 290.836,490.831 271.5,493.5C 248.485,489.988 237.985,476.655 240,453.5C 243.589,441.08 251.423,432.747 263.5,428.5 Z"/></g>
<g><path style="opacity:0.947" fill="#000000" d="M 599.5,407.5 C 629.372,405.344 649.206,418.344 659,446.5C 664.527,480.975 650.694,503.142 617.5,513C 601.408,516.022 587.574,511.856 576,500.5C 575.5,514.829 575.333,529.163 575.5,543.5C 568.833,543.5 562.167,543.5 555.5,543.5C 555.5,500.5 555.5,457.5 555.5,414.5C 562.167,414.5 568.833,414.5 575.5,414.5C 575.336,417.187 575.503,419.854 576,422.5C 582.157,414.84 589.99,409.84 599.5,407.5 Z M 600.5,428.5 C 620.097,426.621 632.93,434.954 639,453.5C 641.008,476.66 630.508,489.994 607.5,493.5C 583.472,489.639 572.972,475.639 576,451.5C 580.517,439.813 588.683,432.146 600.5,428.5 Z"/></g>
<g><path style="opacity:0.946" fill="#000000" d="M 726.5,407.5 C 754.434,405.3 773.934,416.966 785,442.5C 793.075,474.511 782.241,497.344 752.5,511C 733.798,517.227 717.298,513.727 703,500.5C 702.5,514.829 702.333,529.163 702.5,543.5C 695.833,543.5 689.167,543.5 682.5,543.5C 682.5,500.5 682.5,457.5 682.5,414.5C 689.167,414.5 695.833,414.5 702.5,414.5C 702.336,417.187 702.503,419.854 703,422.5C 709.231,414.812 717.065,409.812 726.5,407.5 Z M 727.5,428.5 C 746.659,426.513 759.492,434.513 766,452.5C 768.519,476.149 758.019,489.816 734.5,493.5C 710.981,489.816 700.481,476.149 703,452.5C 707.094,440.239 715.26,432.239 727.5,428.5 Z"/></g>
<g><path style="opacity:0.934" fill="#000000" d="M 447.5,414.5 C 454.5,414.5 461.5,414.5 468.5,414.5C 468.333,435.836 468.5,457.169 469,478.5C 475.758,491.753 485.924,495.253 499.5,489C 503.928,485.908 506.761,481.741 508,476.5C 508.5,455.836 508.667,435.169 508.5,414.5C 515.167,414.5 521.833,414.5 528.5,414.5C 528.667,436.503 528.5,458.503 528,480.5C 523.047,501.285 509.88,511.952 488.5,512.5C 464.332,511.832 450.832,499.498 448,475.5C 447.5,455.169 447.333,434.836 447.5,414.5 Z"/></g>
<g><path style="opacity:0.929" fill="#000000" d="M 849.5,414.5 C 857.42,414.185 865.253,414.518 873,415.5C 880.667,432.167 888.333,448.833 896,465.5C 904.107,448.954 911.94,432.287 919.5,415.5C 927.167,414.167 934.833,414.167 942.5,415.5C 921.974,457.747 901.641,500.081 881.5,542.5C 874.532,543.497 867.532,543.83 860.5,543.5C 868.299,525.447 876.299,507.447 884.5,489.5C 873.098,464.363 861.431,439.363 849.5,414.5 Z"/></g>
</svg>
